<?xml version="1.0" encoding="utf-8"?>
<!-- Generator: Adobe Illustrator 22.0.1, SVG Export Plug-In . SVG Version: 6.00 Build 0)  -->
<svg version="1.1" id="Layer_1" xmlns="http://www.w3.org/2000/svg" xmlns:xlink="http://www.w3.org/1999/xlink" x="0px" y="0px"
	 viewBox="0 0 56.7 56.7" style="enable-background:new 0 0 56.7 56.7;" xml:space="preserve">
<style type="text/css">
	.st0{fill:#96C8D5;}
	.st1{fill:#0F415D;}
	.st2{opacity:0.6;fill:url(#SVGID_1_);}
	.st3{fill:#CEDCD5;}
	.st4{fill:#B1D2D5;}
	.st5{fill:#E9E6D5;}
	.st6{fill:#CF505C;}
	.st7{fill:#AF4D5C;}
	.st8{fill:#8E4A5C;}
	.st9{fill:#EF545C;}
	.st10{fill:#30415B;}
	.st11{fill:#70475C;}
	.st12{fill:#50445C;}
	.st13{fill:#42AAD5;}
	.st14{fill:#79BED5;}
	.st15{fill:#60B4D5;}
	.st16{fill:#29A2DA;}
	.st17{fill:#EBAAA4;}
	.st18{fill:#CDA4A4;}
	.st19{fill:#AF9CA3;}
	.st20{fill:#9296A3;}
	.st21{fill:#1F7BA7;}
	.st22{fill:#3D81A4;}
	.st23{fill:#768FA3;}
	.st24{fill:#5987A3;}
	.st25{fill:none;stroke:#0F415D;stroke-linecap:round;stroke-linejoin:round;stroke-miterlimit:10;}
	.st26{fill:#00A14B;}
	.st27{fill:#E0EDF0;}
	.st28{fill:#C9E0E6;}
	.st29{fill:#D2AA9D;}
	.st30{fill:#E4C2B5;}
	.st31{fill:#E3AF43;}
	.st32{fill:#123956;}
	.st33{fill:#BBBDBF;}
	.st34{opacity:0.2;fill:#121617;}
	.st35{opacity:0.6;fill:url(#SVGID_2_);}
	.st36{fill:url(#SVGID_3_);}
	.st37{opacity:0.8;fill:url(#SVGID_4_);}
	.st38{opacity:0.6;fill:url(#SVGID_5_);}
	.st39{fill:#983520;}
	.st40{fill:#350C08;}
	.st41{fill:none;stroke:#FFFFFF;stroke-width:0.501;stroke-miterlimit:10;}
	.st42{fill:#FEE5D5;}
	.st43{fill:#B53E25;}
	.st44{fill:#F58443;}
	.st45{fill:#FDF4F8;}
	.st46{fill:url(#SVGID_6_);}
	.st47{fill:url(#SVGID_7_);}
	.st48{fill:none;stroke:#0F415D;stroke-width:1.5624;stroke-linecap:round;stroke-linejoin:round;stroke-miterlimit:10;}
	.st49{fill:none;stroke:#0F415D;stroke-width:1.8749;stroke-linecap:round;stroke-linejoin:round;stroke-miterlimit:10;}
	.st50{opacity:0.6;fill:url(#SVGID_8_);}
	.st51{opacity:0.6;fill:url(#SVGID_9_);}
	.st52{fill:url(#SVGID_10_);}
	.st53{opacity:0.4;}
	.st54{opacity:0.6;fill:url(#SVGID_11_);}
	.st55{fill:#EE3F54;}
	.st56{fill:url(#SVGID_12_);}
	.st57{opacity:0.6;fill:url(#SVGID_13_);}
	.st58{fill:#92583D;}
	.st59{fill:#1B85A9;}
	.st60{fill:none;stroke:#231F20;stroke-width:0.547;stroke-miterlimit:10;}
	.st61{fill:#231F20;}
	.st62{fill:url(#SVGID_14_);}
	.st63{opacity:0.6;fill:url(#SVGID_15_);}
	.st64{fill:#E7C58E;}
	.st65{fill:none;stroke:#231F20;stroke-width:1.0608;stroke-linecap:round;stroke-miterlimit:10;}
	.st66{fill:#E9E6D5;stroke:#414042;stroke-miterlimit:10;}
	.st67{fill:url(#SVGID_16_);}
	.st68{opacity:0.6;fill:url(#SVGID_17_);}
	.st69{fill:url(#SVGID_18_);}
	.st70{opacity:0.6;fill:url(#SVGID_19_);}
	.st71{fill:url(#SVGID_20_);}
	.st72{opacity:0.6;fill:url(#SVGID_21_);}
	.st73{fill:url(#SVGID_22_);}
	.st74{opacity:0.6;fill:url(#SVGID_23_);}
	.st75{fill:url(#SVGID_24_);}
	.st76{opacity:0.6;fill:url(#SVGID_25_);}
	.st77{fill:url(#SVGID_26_);}
	.st78{opacity:0.6;fill:url(#SVGID_27_);}
	.st79{fill:url(#SVGID_28_);}
	.st80{opacity:0.6;fill:url(#SVGID_29_);}
	.st81{fill:url(#SVGID_30_);}
	.st82{opacity:0.2;}
	.st83{fill:url(#SVGID_31_);}
	.st84{opacity:0.6;fill:url(#SVGID_32_);}
	.st85{fill:url(#SVGID_33_);}
	.st86{opacity:0.8;fill:url(#SVGID_34_);}
	.st87{opacity:0.1;fill:#EF545C;}
	.st88{fill:url(#SVGID_35_);}
	.st89{fill:url(#SVGID_36_);}
	.st90{opacity:0.6;fill:url(#SVGID_37_);}
	.st91{fill:url(#SVGID_38_);}
	.st92{opacity:0.3;fill:#1F7BA7;}
	.st93{fill:url(#SVGID_39_);}
	.st94{opacity:0.6;fill:url(#SVGID_40_);}
	.st95{fill:url(#SVGID_41_);}
	.st96{fill:url(#SVGID_42_);}
	.st97{fill:url(#SVGID_43_);}
	.st98{opacity:0.6;fill:url(#SVGID_44_);}
	.st99{fill:url(#SVGID_45_);}
	.st100{opacity:0.6;fill:url(#SVGID_46_);}
	.st101{fill:url(#SVGID_47_);}
	.st102{opacity:0.6;fill:url(#SVGID_48_);}
	.st103{fill:url(#SVGID_49_);}
	.st104{opacity:0.6;fill:url(#SVGID_50_);}
	.st105{fill:url(#SVGID_51_);}
	.st106{opacity:0.6;fill:url(#SVGID_52_);}
	.st107{fill:url(#SVGID_53_);}
	.st108{opacity:0.6;fill:url(#SVGID_54_);}
	.st109{fill:url(#SVGID_55_);}
	.st110{opacity:0.6;fill:url(#SVGID_56_);}
	.st111{fill:url(#SVGID_57_);}
	.st112{opacity:0.6;fill:url(#SVGID_58_);}
	.st113{fill:url(#SVGID_59_);}
	.st114{opacity:0.6;fill:url(#SVGID_60_);}
	.st115{fill:url(#SVGID_61_);}
</style>
<g>
	<g>
		<path class="st49" d="M34.8,45.9c0,0,6.2,3.1,7.3,0.5c1.1-2.7-1-4.8-1-4.8c4.1-15.3-7.8-24.4-7.8-24.4l3.1-7.6
			c-1.8-1.8-4.6,2.2-7.9,2.2h-0.1c-3.3,0-6-4.1-7.9-2.2l3.1,7.6c0,0-11.9,9.1-7.8,24.4c0,0-2.1,2.2-1,4.8c1.1,2.7,7.3-0.5,7.3-0.5
			S26.6,50,34.8,45.9z"/>
	</g>
	<path class="st49" d="M23.5,17.1c0,0,4.1,4.2,9.7,0.1"/>
	<g>
		<path class="st1" d="M34.4,26.8l-0.5,0.7c-0.1,0.2-0.3,0.2-0.5,0c-0.8-0.4-1.8-0.6-2.6-0.6c-2,0-3.7,1.2-4.6,3.3h5.4
			c0.2,0,0.4,0.2,0.2,0.4L31,31.5c-0.1,0.2-0.2,0.2-0.3,0.2h-5.1c-0.1,0.4-0.2,0.8-0.2,1.3c0,0.2,0,0.3,0,0.5h3.7
			c0.2,0,0.4,0.2,0.2,0.4l-0.7,0.9C28.6,35,28.5,35,28.3,35h-2.9c0.4,2,1.7,2.9,3.5,2.9c1.1,0,2.4-0.6,3.2-1.2
			c0.3-0.2,0.5-0.1,0.6,0.1l0.4,0.8c0.1,0.1,0.1,0.3,0,0.4c-1.2,0.7-2.9,1.4-4.4,1.4c-2.9,0-4.8-1.7-5.2-4.5h-1.4
			c-0.2,0-0.3-0.1-0.3-0.4l0.1-0.8c0-0.2,0.1-0.2,0.3-0.2h1.2c0-0.2,0-0.5,0-0.7c0-0.4,0.1-0.8,0.2-1.1h-1.1c-0.2,0-0.3-0.1-0.3-0.4
			l0.1-0.8c0-0.2,0.1-0.2,0.3-0.2h1.3c1.1-3.1,3.5-5,6.6-5c1.4,0,2.7,0.4,3.5,1.1C34.4,26.5,34.5,26.7,34.4,26.8z"/>
	</g>
</g>
</svg>
